<?xml version="1.0" encoding="UTF-8" standalone="no"?>
<!-- Created with Inkscape (http://www.inkscape.org/) -->

<svg
   width="210mm"
   height="297mm"
   viewBox="0 0 210 297"
   version="1.1"
   id="svg1"
   inkscape:version="1.4 (86a8ad7, 2024-10-11)"
   sodipodi:docname="paper.svg"
   inkscape:export-filename="..\png\paper.png"
   inkscape:export-xdpi="96"
   inkscape:export-ydpi="96"
   xmlns:inkscape="http://www.inkscape.org/namespaces/inkscape"
   xmlns:sodipodi="http://sodipodi.sourceforge.net/DTD/sodipodi-0.dtd"
   xmlns="http://www.w3.org/2000/svg"
   xmlns:svg="http://www.w3.org/2000/svg">
  <sodipodi:namedview
     id="namedview1"
     pagecolor="#505050"
     bordercolor="#eeeeee"
     borderopacity="1"
     inkscape:showpageshadow="0"
     inkscape:pageopacity="0"
     inkscape:pagecheckerboard="0"
     inkscape:deskcolor="#d1d1d1"
     inkscape:document-units="mm"
     inkscape:zoom="0.55244701"
     inkscape:cx="76.930455"
     inkscape:cy="563.85498"
     inkscape:window-width="1920"
     inkscape:window-height="1057"
     inkscape:window-x="-8"
     inkscape:window-y="-8"
     inkscape:window-maximized="1"
     inkscape:current-layer="layer1" />
  <defs
     id="defs1" />
  <g
     inkscape:label="Layer 1"
     inkscape:groupmode="layer"
     id="layer1">
    <path
       id="rect1"
       style="fill:#b9a780;stroke-width:4;stroke-linecap:round;stroke-linejoin:round;fill-opacity:1;stroke:#000000;stroke-opacity:1;stroke-dasharray:none"
       d="M 59.60308 67.73075 L 59.60308 216.73871 L 174.74592 216.73871 L 174.74592 119.15035 L 118.40569 67.73075 L 59.60308 67.73075 z " />
    <path
       style="fill:none;fill-opacity:1;stroke:#000000;stroke-width:4;stroke-linecap:round;stroke-linejoin:round;stroke-dasharray:none;stroke-opacity:1"
       d="M 115.98917,67.519241 V 121.4583 h 56.648"
       id="path2" />
    <path
       style="fill:none;fill-opacity:1;stroke:#000000;stroke-width:4;stroke-linecap:round;stroke-linejoin:round;stroke-dasharray:none;stroke-opacity:1"
       id="path3"
       d="m 70.388828,83.233484 c 0.06787,-0.126587 0.117153,-0.26507 0.203624,-0.379759 1.102484,-1.462249 3.568342,-2.37635 5.210148,-3.017285 1.475669,-0.466807 2.959084,-0.477073 4.467032,-0.165703 1.359932,0.280808 1.574467,0.472022 2.852843,0.941761 0.446384,0.164025 0.898808,0.311118 1.348211,0.466677 0.443667,0.09257 0.880658,0.226719 1.331,0.277704 2.793693,0.316283 5.460814,-0.884497 7.996152,-1.87153 1.489679,-0.589238 2.999762,-1.15284 4.615165,-1.256935 1.857677,-0.119708 3.693347,0.244157 5.513637,0.549188 0.55922,0.09874 1.11845,0.197482 1.67768,0.296222 0,0 -2.81705,-2.118365 -2.81705,-2.118365 v 0 c -0.53992,-0.0837 -1.07984,-0.167394 -1.61976,-0.251093 -1.867494,-0.293026 -3.76438,-0.677952 -5.666461,-0.523094 -1.617173,0.131664 -3.114247,0.764249 -4.601686,1.358582 -2.545636,0.993937 -5.188953,2.034215 -7.978656,1.627108 -0.435716,-0.06358 -0.858012,-0.198437 -1.287018,-0.297658 -1.388184,-0.484545 -2.764505,-1.070878 -4.220358,-1.32724 -1.554002,-0.273643 -3.068199,-0.19494 -4.567688,0.311269 -1.811139,0.72114 -4.239143,1.594456 -5.598345,3.05087 -0.107511,0.1152 -0.185671,0.254643 -0.278508,0.381966 z" />
    <path
       style="fill:none;fill-opacity:1;stroke:#000000;stroke-width:4;stroke-linecap:round;stroke-linejoin:round;stroke-dasharray:none;stroke-opacity:1"
       id="path4"
       d="m 77.178383,99.06556 c 0.14274,-0.119763 0.27641,-0.251256 0.428223,-0.359288 1.792515,-1.275577 4.120555,-1.955744 6.265235,-2.295112 0.697363,-0.110347 1.405322,-0.137954 2.107981,-0.206931 1.70262,0.04672 1.969841,-0.02 3.586361,0.292592 1.196811,0.231439 1.396563,0.384345 2.508808,0.705073 0.857705,0.247327 1.099775,0.279482 1.95435,0.45312 0.29791,0.02816 0.594495,0.08587 0.893731,0.08449 0.977347,-0.0045 1.789181,-0.322032 2.654448,-0.737785 0.908137,-0.436356 1.431068,-0.733226 2.331249,-1.21907 1.634181,-0.814504 0.829821,-0.410255 2.413281,-1.212303 0,0 -3.034205,-1.990952 -3.034205,-1.990952 v 0 c -1.558552,0.818555 -0.761355,0.40889 -2.39241,1.22741 -1.077585,0.539387 -1.318133,0.686615 -2.405325,1.131469 -0.638291,0.261176 -1.075502,0.434777 -1.751481,0.523862 -0.751652,0.09906 -0.92974,0.02876 -1.683387,-0.06168 -1.041607,-0.217797 -0.820992,-0.15772 -1.886514,-0.440089 -0.364916,-0.09671 -0.724982,-0.212151 -1.092454,-0.29863 -1.598991,-0.376296 -3.223416,-0.540554 -4.867259,-0.424606 -0.699831,0.08527 -1.404517,0.137292 -2.099487,0.255802 -0.742942,0.12669 -1.479029,0.294151 -2.20967,0.47901 -1.777326,0.44968 -3.577932,0.992798 -5.093425,2.05804 z" />
    <path
       style="fill:none;fill-opacity:1;stroke:#000000;stroke-width:4;stroke-linecap:round;stroke-linejoin:round;stroke-dasharray:none;stroke-opacity:1"
       id="path5"
       d="m 71.41175,118.39977 c 1.268351,-1.2519 2.790105,-2.19581 4.328382,-3.07585 1.465749,-0.83855 2.728905,-1.51496 4.318063,-2.08255 0.633387,-0.22622 1.293927,-0.36764 1.940891,-0.55147 1.25031,-0.1505 1.927577,-0.34005 3.156122,-0.1068 0.873448,0.16583 1.836052,0.6399 2.628083,1.0178 0.400849,0.19126 0.783844,0.42069 1.19326,0.59284 0.425056,0.17873 0.870241,0.30519 1.305361,0.45778 1.602799,0.38581 3.225911,0.28224 4.836602,0.0125 0.508926,-0.0852 1.020416,-0.17244 1.513938,-0.32312 0.977003,-0.29829 1.843056,-0.78631 2.746735,-1.24532 0.386921,-0.22535 0.773843,-0.45071 1.160763,-0.67606 0,0 -3.041554,-1.96958 -3.041554,-1.96958 v 0 c -0.371385,0.22572 -0.74277,0.45144 -1.114152,0.67716 -1.033735,0.52123 -1.561103,0.84334 -2.682806,1.17882 -1.532173,0.45823 -3.214415,0.61434 -4.802394,0.42651 -0.492826,-0.0583 -0.971929,-0.20112 -1.457894,-0.30169 -0.432239,-0.16595 -0.871233,-0.31527 -1.29672,-0.49785 -1.280568,-0.54949 -2.470198,-1.2891 -3.887624,-1.47107 -1.159306,-0.14882 -1.94269,0.0916 -3.091524,0.29614 -0.630335,0.21056 -1.273402,0.38627 -1.891006,0.63167 -1.513311,0.60131 -2.886681,1.35665 -4.320376,2.12424 -1.647449,0.88203 -3.290265,1.77788 -4.828653,2.8436 z" />
    <path
       style="fill:none;fill-opacity:1;stroke:#000000;stroke-width:4;stroke-linecap:round;stroke-linejoin:round;stroke-dasharray:none;stroke-opacity:1"
       id="path6"
       d="m 74.340444,140.20006 c 2.258695,-2.11281 4.873075,-3.78703 7.719951,-4.99763 1.079516,-0.45906 2.175891,-0.89109 3.30522,-1.20843 1.097558,-0.30841 2.236862,-0.44211 3.355293,-0.66317 3.490851,0.0778 3.408172,-0.0782 6.844138,0.6148 1.571744,0.31699 4.890384,1.25456 6.458314,1.65529 3.31616,0.84754 2.86898,0.71271 6.20979,1.38357 3.20618,0.50658 6.46086,0.59412 9.69421,0.32783 3.487,-0.28718 6.92528,-0.97463 10.35697,-1.62439 4.13243,-0.74515 8.25814,-1.68691 12.4785,-1.7171 2.44078,-0.0175 3.12735,0.14053 5.51247,0.4289 0.81235,0.16733 1.63063,0.30811 2.43706,0.50199 0.71914,0.17289 1.42851,0.38493 2.13689,0.59765 1.61272,0.48429 3.21528,1.12454 4.91132,1.27327 0.44736,0.0392 0.89812,-0.008 1.34718,-0.0118 0.40468,-0.10663 0.82715,-0.16038 1.21405,-0.31989 1.1228,-0.4629 2.1311,-1.36968 2.882,-2.30741 0.21851,-0.27287 0.39325,-0.57808 0.58987,-0.86712 0,0 -3.20133,-1.87471 -3.20133,-1.87471 v 0 c -0.17906,0.27782 -0.33637,0.57093 -0.53717,0.83348 -0.70754,0.9251 -1.63633,1.73149 -2.7416,2.13988 -0.36615,0.13529 -0.76065,0.17577 -1.14097,0.26366 -0.42334,-0.003 -0.84863,0.0314 -1.27,-0.009 -0.94517,-0.0914 -2.12655,-0.4192 -3.02428,-0.67043 -1.70334,-0.47668 -1.97242,-0.64089 -3.79653,-1.03716 -0.79658,-0.17305 -1.60315,-0.2964 -2.40473,-0.4446 -2.38349,-0.24766 -3.03869,-0.38961 -5.47423,-0.33424 -4.1927,0.0953 -8.29838,1.04045 -12.39892,1.82386 -2.61948,0.5113 -4.19855,0.86179 -6.86188,1.20728 -4.37807,0.56793 -8.81484,0.69061 -13.18156,-0.0525 -3.38125,-0.68737 -2.81643,-0.53189 -6.172318,-1.3776 -1.704726,-0.42961 -4.722992,-1.27206 -6.437826,-1.59917 -3.471365,-0.66218 -3.382332,-0.50228 -6.913443,-0.53269 -1.116867,0.23953 -2.252221,0.40502 -3.350607,0.71858 -1.785411,0.50968 -4.809116,1.73849 -6.485998,2.58005 -1.861508,0.93421 -3.565345,2.15783 -5.325073,3.26188 z" />
    <path
       style="fill:none;fill-opacity:1;stroke:#000000;stroke-width:4;stroke-linecap:round;stroke-linejoin:round;stroke-dasharray:none;stroke-opacity:1"
       id="path8"
       d="m 77.07314,158.966 c 0.19545,0.0171 0.392869,0.0189 0.586354,0.0514 0.744548,0.12523 0.96902,0.23953 1.695407,0.58244 0.3703,0.17481 1.44222,0.77356 1.096026,0.55486 -0.648713,-0.40981 -1.31495,-0.79554 -2.005751,-1.12955 -0.435866,-0.21075 0.825707,0.50574 1.238557,0.75861 2.396525,1.41326 4.73927,2.96037 7.330893,3.9965 0.830117,0.33188 1.952773,0.72604 2.852338,0.83959 0.473731,0.0598 0.954717,0.0224 1.432078,0.0335 0.471297,-0.0861 0.952209,-0.13031 1.413896,-0.25829 1.890379,-0.52404 3.802928,-1.55565 5.581288,-2.36668 2.192514,-0.9999 2.759674,-1.23912 5.011314,-2.22792 3.7938,-1.58685 7.69674,-2.95845 11.70013,-3.91646 2.48522,-0.59472 3.23945,-0.66917 5.73467,-1.07112 3.82058,-0.5585 7.6612,-0.24375 11.41871,0.57311 2.46236,0.5353 4.24526,1.09985 6.67865,1.80578 3.48344,1.03535 6.99418,2.0046 10.554,2.74506 2.03101,0.42246 3.67127,0.73167 5.73618,0.77348 0.79406,0.0161 1.58655,-0.0777 2.37983,-0.11656 1.95602,-0.25327 3.72382,-1.05778 5.49694,-1.85995 0,0 -3.05729,-2.02444 -3.05729,-2.02444 v 0 c -1.70381,0.8108 -3.40175,1.59971 -5.30513,1.82455 -0.76601,0.04 -1.53109,0.13316 -2.29803,0.1201 -1.95063,-0.0332 -3.66908,-0.33318 -5.58354,-0.72049 -3.55192,-0.71859 -7.047,-1.69814 -10.51532,-2.73978 -2.33838,-0.68286 -4.42216,-1.33815 -6.80023,-1.85432 -3.79012,-0.82266 -7.66329,-1.06887 -11.50966,-0.49457 -2.52951,0.43448 -3.19327,0.50243 -5.71439,1.1259 -4.01621,0.99319 -7.93747,2.37138 -11.76484,3.93196 -1.267957,0.53808 -3.807374,1.61391 -5.104788,2.17137 -1.848202,0.79413 -3.706646,1.72985 -5.680093,2.1855 -0.449332,0.10374 -0.912972,0.13088 -1.369457,0.19632 -0.461777,-0.0295 -0.928299,-0.0162 -1.385332,-0.0885 -0.882264,-0.13959 -1.972522,-0.5364 -2.786295,-0.87549 -0.485209,-0.20218 -1.752563,-1.07575 -1.432878,-0.65849 0.414015,0.54038 1.172649,0.69262 1.74335,1.06372 0.42241,0.27468 -0.865489,-0.51618 -1.298236,-0.77427 -2.219238,-1.37629 -2.378414,-1.49168 -5.619721,-3.30883 -1.12573,-0.63111 -2.338993,-1.11215 -3.639074,-1.16534 z" />
    <path
       style="fill:none;fill-opacity:1;stroke:#000000;stroke-width:4;stroke-linecap:round;stroke-linejoin:round;stroke-dasharray:none;stroke-opacity:1"
       id="path9"
       d="m 80.740929,193.26704 c 1.347872,-1.27654 2.825073,-2.4509 4.422873,-3.40274 1.23046,-0.733 2.277046,-1.17032 3.575515,-1.76532 1.399308,-0.46566 2.165705,-0.85847 3.664588,-0.82721 1.931503,0.0403 3.782753,0.90006 5.42376,1.8345 0.475504,0.27076 -0.975953,-0.49516 -1.463929,-0.74274 1.421207,0.9498 2.689257,2.11185 4.108784,3.06342 1.62754,1.09101 5.22762,2.88258 6.20745,3.27104 0.64431,0.25543 1.37199,0.1979 2.05799,0.29685 0.93946,-0.0714 1.88354,-0.0968 2.81839,-0.21405 4.31836,-0.54144 8.74845,-1.76746 12.79214,-3.36583 0.89596,-0.35416 1.7689,-0.764 2.65335,-1.14599 0.80387,-0.36621 1.61353,-0.71998 2.41162,-1.09862 1.38992,-0.65941 3.12347,-1.58991 4.53,-2.20013 1.41496,-0.61388 3.61003,-1.40817 5.07715,-1.84879 0.89741,-0.26952 1.81125,-0.48097 2.71688,-0.72146 2.89078,-0.67701 5.83161,-1.1272 8.78923,-1.37767 1.978,-0.1377 0.99295,-0.0599 2.9552,-0.23303 1.54987,-0.15363 3.06336,-0.49179 4.57186,-0.86307 0,0 -3.03881,-2.09874 -3.03881,-2.09874 v 0 c -1.50047,0.36177 -3.00612,0.68262 -4.54867,0.81101 -3.8897,0.34133 -7.7667,0.84621 -11.55722,1.81708 -0.91271,0.24439 -1.8332,0.46138 -2.73813,0.73317 -1.60279,0.48138 -3.58738,1.19964 -5.13021,1.86221 -2.14257,0.92013 -2.46617,1.19719 -4.52059,2.20353 -0.7841,0.38408 -1.57903,0.74565 -2.36854,1.11848 -0.86652,0.38569 -1.72104,0.79956 -2.59955,1.15708 -3.96951,1.61541 -8.49725,2.88734 -12.77572,3.25135 -0.96333,0.082 -1.93318,0.0409 -2.89977,0.0614 -4.66621,-0.88351 -0.84234,-0.48238 -0.59513,0.74293 0.10639,0.52729 -0.94645,-0.51385 -1.39749,-0.80696 -0.68363,-0.44425 -2.04885,-1.52262 -2.68829,-2.00733 -0.48662,-0.36887 -0.97727,-0.7324 -1.465898,-1.0986 -2.854679,-1.706 -6.6412,-4.55351 -10.288563,-4.49306 -1.473415,0.0244 -2.333435,0.45316 -3.701206,0.93254 -1.303123,0.60731 -2.377805,1.07233 -3.623765,1.79793 -1.658954,0.96613 -3.204684,2.13172 -4.716375,3.3094 z" />
  </g>
</svg>
