# Blender 4.3.2
# www.blender.org
mtllib bed.mtl
o Cube
v 4.000000 0.250000 -2.500000
v 4.000000 -0.250000 -2.500000
v 4.000000 0.250000 2.500000
v 4.000000 -0.250000 2.500000
v -4.000000 0.250000 -2.500000
v -4.000000 -0.250000 -2.500000
v -4.000000 0.250000 2.500000
v -4.000000 -0.250000 2.500000
v -4.000000 -0.462625 -2.500000
v -4.000000 -0.462625 2.500000
v 4.000000 -0.462625 -2.500000
v 4.000000 -0.462625 2.500000
v 4.400000 -0.250000 2.500000
v 4.400000 -0.250000 -2.500000
v 4.400000 -0.462625 2.500000
v 4.400000 -0.462625 -2.500000
v -4.400000 -0.250000 -2.500000
v -4.400000 -0.250000 2.500000
v -4.400000 -0.462625 -2.500000
v -4.400000 -0.462625 2.500000
v -4.000000 0.550000 -2.500000
v -4.000000 0.550000 2.500000
v -4.400000 0.550000 -2.500000
v -4.400000 0.550000 2.500000
v 4.000000 1.350000 2.500000
v 4.000000 1.350000 -2.500000
v 4.400000 1.350000 2.500000
v 4.400000 1.350000 -2.500000
v 4.000000 -0.962625 2.500000
v 4.000000 -0.962625 -2.500000
v 4.400000 -0.962625 2.500000
v 4.400000 -0.962625 -2.500000
v -4.000000 -0.962625 -2.500000
v -4.000000 -0.962625 2.500000
v -4.400000 -0.962625 -2.500000
v -4.400000 -0.962625 2.500000
vn -0.0000 1.0000 -0.0000
vn -0.0000 -0.0000 1.0000
vn -1.0000 -0.0000 -0.0000
vn 1.0000 -0.0000 -0.0000
vn -0.0000 -0.0000 -1.0000
vn -0.0000 -1.0000 -0.0000
vt 0.625000 0.500000
vt 0.875000 0.500000
vt 0.875000 0.750000
vt 0.625000 0.750000
vt 0.375000 0.750000
vt 0.625000 1.000000
vt 0.375000 1.000000
vt 0.375000 0.000000
vt 0.625000 0.000000
vt 0.625000 0.250000
vt 0.375000 0.250000
vt 0.375000 0.500000
vt 0.125000 0.500000
vt 0.125000 0.750000
s 0
usemtl Material
f 1/1/1 5/2/1 7/3/1 3/4/1
f 4/5/2 3/4/2 7/6/2 8/7/2
f 8/8/3 7/9/3 5/10/3 6/11/3
f 4/5/2 8/7/2 10/7/2 12/5/2
f 2/12/4 1/1/4 3/4/4 4/5/4
f 6/11/5 5/10/5 1/1/5 2/12/5
f 9/13/6 11/12/6 12/5/6 10/14/6
f 9/13/4 10/14/4 34/14/4 33/13/4
f 11/12/5 2/12/5 14/12/5 16/12/5
f 6/11/5 2/12/5 11/12/5 9/11/5
f 14/12/4 13/5/4 15/5/4 16/12/4
f 4/5/2 12/5/2 15/5/2 13/5/2
f 11/12/5 16/12/5 32/12/5 30/12/5
f 14/12/5 2/12/5 26/12/5 28/12/5
f 18/8/3 17/11/3 19/11/3 20/8/3
f 6/11/5 17/11/5 23/11/5 21/11/5
f 6/11/5 9/11/5 19/11/5 17/11/5
f 10/7/2 8/7/2 18/7/2 20/7/2
f 22/8/1 21/11/1 23/11/1 24/8/1
f 17/11/3 18/8/3 24/8/3 23/11/3
f 18/7/2 8/7/2 22/7/2 24/7/2
f 8/8/4 6/11/4 21/11/4 22/8/4
f 26/12/1 25/5/1 27/5/1 28/12/1
f 2/12/3 4/5/3 25/5/3 26/12/3
f 13/5/4 14/12/4 28/12/4 27/5/4
f 4/5/2 13/5/2 27/5/2 25/5/2
f 29/5/6 30/12/6 32/12/6 31/5/6
f 16/12/4 15/5/4 31/5/4 32/12/4
f 12/5/3 11/12/3 30/12/3 29/5/3
f 15/5/2 12/5/2 29/5/2 31/5/2
f 33/13/6 34/14/6 36/14/6 35/13/6
f 10/7/2 20/7/2 36/7/2 34/7/2
f 19/11/5 9/11/5 33/11/5 35/11/5
f 20/8/3 19/11/3 35/11/3 36/8/3
